<svg width="187" height="38" viewBox="0 0 187 38" fill="none" xmlns="http://www.w3.org/2000/svg">
<rect x="1" y="1" width="185" height="36" stroke="black" stroke-width="2"/>
<path d="M38.04 12V26H37.02V12.92H27.54V26H26.52V12H38.04ZM49.0825 26.1C47.7092 26.1 46.4692 25.7933 45.3625 25.18C44.2558 24.5533 43.3825 23.7 42.7425 22.62C42.1158 21.54 41.8025 20.3333 41.8025 19C41.8025 17.6667 42.1158 16.46 42.7425 15.38C43.3825 14.3 44.2558 13.4533 45.3625 12.84C46.4692 12.2133 47.7092 11.9 49.0825 11.9C50.4558 11.9 51.6958 12.2067 52.8025 12.82C53.9092 13.4333 54.7758 14.28 55.4025 15.36C56.0425 16.44 56.3625 17.6533 56.3625 19C56.3625 20.3467 56.0425 21.56 55.4025 22.64C54.7758 23.72 53.9092 24.5667 52.8025 25.18C51.6958 25.7933 50.4558 26.1 49.0825 26.1ZM49.0825 25.16C50.2558 25.16 51.3158 24.8933 52.2625 24.36C53.2092 23.8267 53.9558 23.0933 54.5025 22.16C55.0492 21.2133 55.3225 20.16 55.3225 19C55.3225 17.84 55.0492 16.7933 54.5025 15.86C53.9558 14.9133 53.2092 14.1733 52.2625 13.64C51.3158 13.1067 50.2558 12.84 49.0825 12.84C47.9092 12.84 46.8425 13.1067 45.8825 13.64C44.9358 14.1733 44.1892 14.9133 43.6425 15.86C43.0958 16.7933 42.8225 17.84 42.8225 19C42.8225 20.16 43.0958 21.2133 43.6425 22.16C44.1892 23.0933 44.9358 23.8267 45.8825 24.36C46.8425 24.8933 47.9092 25.16 49.0825 25.16ZM72.2027 25.08V29.2H71.2227V26H58.4227L58.4027 29.2H57.4227L57.4427 25.08H58.2027C59.1227 25 59.7627 24.2267 60.1227 22.76C60.496 21.2933 60.7227 19.24 60.8027 16.6L60.9427 12H70.0427V25.08H72.2027ZM61.7427 16.68C61.6627 18.9467 61.4827 20.8 61.2027 22.24C60.936 23.68 60.476 24.6267 59.8227 25.08H69.0227V12.92H61.8627L61.7427 16.68ZM80.4853 12C82.2453 12 83.6253 12.42 84.6253 13.26C85.6253 14.0867 86.1253 15.24 86.1253 16.72C86.1253 18.1867 85.6253 19.34 84.6253 20.18C83.6253 21.0067 82.2453 21.42 80.4853 21.42H76.4853V26H75.4653V12H80.4853ZM80.4853 20.5C81.9786 20.5 83.1186 20.1733 83.9053 19.52C84.692 18.8667 85.0853 17.9333 85.0853 16.72C85.0853 15.5067 84.692 14.5733 83.9053 13.92C83.1186 13.2533 81.9786 12.92 80.4853 12.92H76.4853V20.5H80.4853ZM95.5864 26.1C94.2131 26.1 92.9731 25.7933 91.8664 25.18C90.7597 24.5533 89.8864 23.7 89.2464 22.62C88.6197 21.54 88.3064 20.3333 88.3064 19C88.3064 17.6667 88.6197 16.46 89.2464 15.38C89.8864 14.3 90.7597 13.4533 91.8664 12.84C92.9731 12.2133 94.2131 11.9 95.5864 11.9C96.9597 11.9 98.1997 12.2067 99.3064 12.82C100.413 13.4333 101.28 14.28 101.906 15.36C102.546 16.44 102.866 17.6533 102.866 19C102.866 20.3467 102.546 21.56 101.906 22.64C101.28 23.72 100.413 24.5667 99.3064 25.18C98.1997 25.7933 96.9597 26.1 95.5864 26.1ZM95.5864 25.16C96.7597 25.16 97.8197 24.8933 98.7664 24.36C99.7131 23.8267 100.46 23.0933 101.006 22.16C101.553 21.2133 101.826 20.16 101.826 19C101.826 17.84 101.553 16.7933 101.006 15.86C100.46 14.9133 99.7131 14.1733 98.7664 13.64C97.8197 13.1067 96.7597 12.84 95.5864 12.84C94.4131 12.84 93.3464 13.1067 92.3864 13.64C91.4397 14.1733 90.6931 14.9133 90.1464 15.86C89.5997 16.7933 89.3264 17.84 89.3264 19C89.3264 20.16 89.5997 21.2133 90.1464 22.16C90.6931 23.0933 91.4397 23.8267 92.3864 24.36C93.3464 24.8933 94.4131 25.16 95.5864 25.16ZM106.637 12H116.617V12.9H107.657V17.94H112.397C114.037 17.94 115.284 18.2733 116.137 18.94C116.991 19.6067 117.417 20.5867 117.417 21.88C117.417 23.2133 116.964 24.2333 116.057 24.94C115.151 25.6467 113.837 26 112.117 26H106.637V12ZM112.137 25.14C113.537 25.14 114.597 24.8733 115.317 24.34C116.037 23.7933 116.397 22.9867 116.397 21.92C116.397 19.8267 114.977 18.78 112.137 18.78H107.657V25.14H112.137ZM132.49 12V26H131.47V19.34H122.11V26H121.09V12H122.11V18.44H131.47V12H132.49ZM147.196 25.08V26H137.536V12H146.896V12.92H138.556V18.44H146.016V19.34H138.556V25.08H147.196ZM160.262 25.08V26H150.602V12H159.962V12.92H151.622V18.44H159.082V19.34H151.622V25.08H160.262Z" fill="black"/>
</svg>
