<svg width="366" height="224" viewBox="0 0 366 224" fill="none" xmlns="http://www.w3.org/2000/svg">
<path d="M0 223.5H366" stroke="#CFCFCF"/>
<path d="M115.16 176.16C106.64 176.16 98.78 174.6 91.58 171.48C84.5 168.24 78.68 163.68 74.12 157.8L90.32 138.36C93.8 142.92 97.46 146.4 101.3 148.8C105.14 151.08 109.28 152.22 113.72 152.22C125.6 152.22 131.54 145.26 131.54 131.34V71.4H87.26V48H160.52V129.72C160.52 145.32 156.68 156.96 149 164.64C141.32 172.32 130.04 176.16 115.16 176.16ZM230.723 176.16C220.643 176.16 210.983 174.84 201.743 172.2C192.503 169.44 185.063 165.9 179.423 161.58L189.323 139.62C194.723 143.46 201.083 146.64 208.403 149.16C215.843 151.56 223.343 152.76 230.903 152.76C236.663 152.76 241.283 152.22 244.763 151.14C248.363 149.94 251.003 148.32 252.683 146.28C254.363 144.24 255.203 141.9 255.203 139.26C255.203 135.9 253.883 133.26 251.243 131.34C248.603 129.3 245.123 127.68 240.803 126.48C236.483 125.16 231.683 123.96 226.403 122.88C221.243 121.68 216.023 120.24 210.743 118.56C205.583 116.88 200.843 114.72 196.523 112.08C192.203 109.44 188.663 105.96 185.903 101.64C183.263 97.32 181.943 91.8 181.943 85.08C181.943 77.88 183.863 71.34 187.703 65.46C191.663 59.46 197.543 54.72 205.343 51.24C213.263 47.64 223.163 45.84 235.043 45.84C242.963 45.84 250.763 46.8 258.443 48.72C266.123 50.52 272.903 53.28 278.783 57L269.783 79.14C263.903 75.78 258.023 73.32 252.143 71.76C246.263 70.08 240.503 69.24 234.863 69.24C229.223 69.24 224.603 69.9 221.003 71.22C217.403 72.54 214.823 74.28 213.263 76.44C211.703 78.48 210.923 80.88 210.923 83.64C210.923 86.88 212.243 89.52 214.883 91.56C217.523 93.48 221.003 95.04 225.323 96.24C229.643 97.44 234.383 98.64 239.543 99.84C244.823 101.04 250.043 102.42 255.203 103.98C260.483 105.54 265.283 107.64 269.603 110.28C273.923 112.92 277.403 116.4 280.043 120.72C282.803 125.04 284.183 130.5 284.183 137.1C284.183 144.18 282.203 150.66 278.243 156.54C274.283 162.42 268.343 167.16 260.423 170.76C252.623 174.36 242.723 176.16 230.723 176.16Z" fill="#4A4A4A"/>
</svg>
